<svg xmlns="http://www.w3.org/2000/svg" xmlns:xlink="http://www.w3.org/1999/xlink" width="500" zoomAndPan="magnify" viewBox="0 0 375 374.999991" height="500" preserveAspectRatio="xMidYMid meet" version="1.0"><defs><clipPath id="a2346184e0"><path d="M 109.667969 137 L 186 137 L 186 209.070312 L 109.667969 209.070312 Z M 109.667969 137 " clip-rule="nonzero"/></clipPath><clipPath id="cdbc4bfcee"><path d="M 190 136 L 265.667969 136 L 265.667969 208 L 190 208 Z M 190 136 " clip-rule="nonzero"/></clipPath><clipPath id="5f02a0eafc"><path d="M 197 85.320312 L 225 85.320312 L 225 135 L 197 135 Z M 197 85.320312 " clip-rule="nonzero"/></clipPath></defs><g clip-path="url(#a2346184e0)"><path fill="#9ac8eb" d="M 160.148438 137.421875 L 126.78125 153.066406 C 125.910156 153.480469 125.0625 153.929688 124.238281 154.425781 C 123.414062 154.917969 122.613281 155.453125 121.839844 156.023438 C 121.066406 156.597656 120.324219 157.207031 119.609375 157.851562 C 118.894531 158.496094 118.214844 159.175781 117.566406 159.886719 C 116.917969 160.597656 116.308594 161.339844 115.734375 162.109375 C 115.160156 162.882812 114.621094 163.679688 114.125 164.503906 C 113.628906 165.328125 113.175781 166.175781 112.761719 167.042969 C 112.347656 167.910156 111.976562 168.796875 111.648438 169.703125 C 111.320312 170.605469 111.039062 171.527344 110.800781 172.457031 C 110.566406 173.390625 110.375 174.332031 110.230469 175.285156 C 110.082031 176.234375 109.984375 177.191406 109.933594 178.152344 C 109.882812 179.113281 109.878906 180.074219 109.921875 181.035156 C 109.964844 181.996094 110.050781 182.953125 110.1875 183.90625 C 110.324219 184.855469 110.507812 185.800781 110.734375 186.734375 C 110.964844 187.667969 111.238281 188.589844 111.554688 189.5 C 111.875 190.40625 112.238281 191.296875 112.644531 192.167969 C 113.054688 193.039062 113.507812 193.886719 114 194.710938 C 114.496094 195.539062 115.027344 196.335938 115.601562 197.109375 C 116.171875 197.882812 116.78125 198.628906 117.425781 199.339844 C 118.070312 200.054688 118.75 200.734375 119.460938 201.382812 C 120.171875 202.03125 120.914062 202.640625 121.6875 203.21875 C 122.457031 203.792969 123.253906 204.328125 124.078125 204.824219 C 124.902344 205.320312 125.75 205.777344 126.617188 206.191406 C 127.484375 206.605469 128.371094 206.976562 129.277344 207.300781 C 130.183594 207.628906 131.101562 207.910156 132.035156 208.148438 C 132.964844 208.386719 133.90625 208.578125 134.859375 208.722656 C 135.808594 208.867188 136.765625 208.964844 137.726562 209.015625 C 138.6875 209.070312 139.648438 209.074219 140.609375 209.03125 C 141.570312 208.988281 142.527344 208.898438 143.480469 208.761719 C 144.433594 208.625 145.375 208.441406 146.3125 208.214844 C 147.246094 207.984375 148.167969 207.710938 149.074219 207.394531 C 149.980469 207.074219 150.871094 206.710938 151.746094 206.304688 L 185.007812 190.710938 L 185.191406 190.621094 L 160.226562 137.386719 Z M 161.609375 147.308594 L 132.347656 161.03125 C 132.019531 161.183594 131.671875 161.269531 131.3125 161.285156 C 130.949219 161.300781 130.597656 161.246094 130.257812 161.125 C 129.914062 161 129.609375 160.816406 129.34375 160.570312 C 129.074219 160.328125 128.863281 160.039062 128.710938 159.710938 C 128.558594 159.382812 128.472656 159.039062 128.457031 158.675781 C 128.441406 158.3125 128.492188 157.960938 128.617188 157.621094 C 128.742188 157.28125 128.925781 156.976562 129.171875 156.707031 C 129.414062 156.441406 129.703125 156.230469 130.03125 156.074219 L 159.292969 142.355469 Z M 161.609375 147.308594 " fill-opacity="1" fill-rule="evenodd"/></g><g clip-path="url(#cdbc4bfcee)"><path fill="#1b98d2" d="M 190.089844 190.527344 L 223.90625 205.390625 C 224.785156 205.773438 225.683594 206.113281 226.601562 206.410156 C 227.515625 206.707031 228.441406 206.960938 229.382812 207.164062 C 230.324219 207.371094 231.269531 207.53125 232.226562 207.644531 C 233.179688 207.757812 234.140625 207.824219 235.101562 207.84375 C 236.0625 207.863281 237.023438 207.835938 237.980469 207.761719 C 238.941406 207.683594 239.894531 207.5625 240.839844 207.394531 C 241.789062 207.226562 242.726562 207.015625 243.652344 206.753906 C 244.578125 206.496094 245.488281 206.191406 246.386719 205.839844 C 247.28125 205.492188 248.160156 205.101562 249.019531 204.667969 C 249.875 204.230469 250.710938 203.757812 251.523438 203.238281 C 252.335938 202.722656 253.117188 202.167969 253.875 201.574219 C 254.632812 200.980469 255.359375 200.351562 256.054688 199.6875 C 256.75 199.023438 257.414062 198.328125 258.039062 197.597656 C 258.667969 196.871094 259.257812 196.113281 259.8125 195.324219 C 260.367188 194.539062 260.878906 193.726562 261.351562 192.890625 C 261.828125 192.050781 262.257812 191.195312 262.648438 190.3125 C 263.03125 189.433594 263.375 188.535156 263.671875 187.617188 C 263.964844 186.703125 264.21875 185.777344 264.421875 184.835938 C 264.628906 183.894531 264.789062 182.949219 264.902344 181.992188 C 265.015625 181.039062 265.082031 180.078125 265.101562 179.117188 C 265.117188 178.15625 265.089844 177.195312 265.015625 176.234375 C 264.941406 175.277344 264.820312 174.324219 264.652344 173.375 C 264.484375 172.429688 264.269531 171.492188 264.007812 170.566406 C 263.75 169.640625 263.445312 168.730469 263.097656 167.832031 C 262.746094 166.9375 262.355469 166.058594 261.921875 165.199219 C 261.484375 164.34375 261.007812 163.507812 260.492188 162.695312 C 259.976562 161.886719 259.421875 161.101562 258.828125 160.34375 C 258.234375 159.585938 257.605469 158.859375 256.941406 158.164062 C 256.277344 157.46875 255.578125 156.808594 254.847656 156.179688 C 254.121094 155.550781 253.363281 154.960938 252.574219 154.410156 C 251.789062 153.855469 250.976562 153.34375 250.136719 152.867188 C 249.300781 152.394531 248.441406 151.964844 247.5625 151.574219 L 213.746094 136.710938 Z M 244.441406 154.832031 C 244.773438 154.980469 245.0625 155.183594 245.3125 155.445312 C 245.5625 155.710938 245.753906 156.007812 245.886719 156.347656 C 246.015625 156.683594 246.078125 157.035156 246.070312 157.398438 C 246.0625 157.761719 245.984375 158.105469 245.835938 158.4375 C 245.691406 158.769531 245.488281 159.0625 245.222656 159.3125 C 244.960938 159.5625 244.664062 159.753906 244.324219 159.882812 C 243.988281 160.015625 243.636719 160.078125 243.273438 160.070312 C 242.910156 160.0625 242.566406 159.984375 242.234375 159.835938 L 212.640625 146.835938 L 214.851562 141.832031 Z M 244.441406 154.832031 " fill-opacity="1" fill-rule="evenodd"/></g><g clip-path="url(#5f02a0eafc)"><path fill="#7ed957" d="M 202.203125 134.457031 C 188.316406 104.855469 210.167969 106.703125 214.269531 85.390625 C 228.378906 103.292969 229.269531 124.648438 205.066406 134.632812 C 203.042969 120.066406 217.925781 108.058594 215.5 97.792969 C 215.878906 105.300781 201.808594 119.382812 202.203125 134.457031 Z M 202.203125 134.457031 " fill-opacity="1" fill-rule="evenodd"/></g><path fill="#7ed957" d="M 168.382812 136.011719 C 143.613281 126.808594 157.257812 115.484375 147.554688 100.878906 C 165.832031 103.210938 178.4375 115.035156 170.144531 134.5 C 160.730469 127.246094 162.507812 111.886719 155.28125 107.34375 C 159.777344 111.449219 159.617188 127.539062 168.382812 136.011719 Z M 168.382812 136.011719 " fill-opacity="1" fill-rule="evenodd"/><path fill="#7ed957" d="M 184.742188 168.265625 C 161.640625 144.8125 183.007812 139.25 179.761719 117.640625 C 199.15625 129.910156 207.15625 149.886719 187.546875 167.472656 C 180.75 154.320312 190.855469 137.929688 185.113281 128.996094 C 187.960938 136.003906 179.316406 154.085938 184.742188 168.265625 Z M 184.742188 168.265625 " fill-opacity="1" fill-rule="evenodd"/><path fill="#7ed957" d="M 193.960938 98.03125 C 194.230469 98.023438 194.5 98.042969 194.769531 98.089844 C 195.039062 98.136719 195.300781 98.207031 195.554688 98.304688 C 195.808594 98.402344 196.050781 98.523438 196.28125 98.667969 C 196.511719 98.8125 196.726562 98.980469 196.921875 99.167969 C 197.121094 99.355469 197.296875 99.558594 197.453125 99.78125 C 197.613281 100.003906 197.746094 100.242188 197.855469 100.488281 C 197.96875 100.738281 198.054688 100.996094 198.113281 101.261719 C 198.171875 101.527344 198.207031 101.796875 198.214844 102.066406 C 198.222656 102.339844 198.203125 102.609375 198.15625 102.878906 C 198.109375 103.148438 198.039062 103.410156 197.941406 103.664062 C 197.84375 103.917969 197.722656 104.160156 197.578125 104.390625 C 197.429688 104.621094 197.265625 104.835938 197.078125 105.03125 C 196.890625 105.230469 196.683594 105.40625 196.460938 105.5625 C 196.242188 105.722656 196.003906 105.855469 195.757812 105.964844 C 195.507812 106.078125 195.25 106.164062 194.984375 106.222656 C 194.71875 106.28125 194.449219 106.316406 194.175781 106.324219 C 193.90625 106.332031 193.636719 106.3125 193.367188 106.265625 C 193.097656 106.21875 192.835938 106.148438 192.582031 106.050781 C 192.328125 105.953125 192.085938 105.832031 191.855469 105.683594 C 191.625 105.539062 191.410156 105.375 191.214844 105.1875 C 191.015625 105 190.839844 104.792969 190.683594 104.570312 C 190.523438 104.347656 190.390625 104.113281 190.28125 103.863281 C 190.167969 103.617188 190.082031 103.359375 190.023438 103.09375 C 189.964844 102.828125 189.929688 102.558594 189.921875 102.285156 C 189.914062 102.015625 189.933594 101.742188 189.980469 101.476562 C 190.027344 101.207031 190.097656 100.945312 190.195312 100.691406 C 190.292969 100.4375 190.414062 100.195312 190.558594 99.964844 C 190.707031 99.734375 190.871094 99.519531 191.058594 99.324219 C 191.246094 99.125 191.453125 98.949219 191.675781 98.789062 C 191.894531 98.632812 192.132812 98.5 192.378906 98.386719 C 192.628906 98.277344 192.886719 98.191406 193.152344 98.132812 C 193.417969 98.070312 193.6875 98.039062 193.960938 98.03125 Z M 193.960938 98.03125 " fill-opacity="1" fill-rule="nonzero"/><path fill="#7ed957" d="M 190.023438 174.359375 C 190.023438 174.019531 189.960938 173.695312 189.832031 173.382812 C 189.699219 173.070312 189.515625 172.796875 189.277344 172.558594 C 189.039062 172.320312 188.765625 172.136719 188.453125 172.007812 C 188.140625 171.878906 187.816406 171.8125 187.476562 171.8125 C 187.140625 171.8125 186.816406 171.878906 186.503906 172.007812 C 186.191406 172.136719 185.917969 172.320312 185.679688 172.558594 C 185.441406 172.796875 185.257812 173.074219 185.128906 173.386719 C 185 173.699219 184.933594 174.023438 184.933594 174.359375 C 184.933594 174.699219 185 175.023438 185.128906 175.332031 C 185.257812 175.644531 185.445312 175.921875 185.683594 176.160156 C 185.921875 176.398438 186.195312 176.582031 186.507812 176.710938 C 186.820312 176.839844 187.144531 176.902344 187.484375 176.902344 C 187.820312 176.902344 188.144531 176.835938 188.457031 176.707031 C 188.765625 176.578125 189.039062 176.394531 189.277344 176.15625 C 189.515625 175.914062 189.699219 175.640625 189.828125 175.328125 C 189.957031 175.019531 190.023438 174.695312 190.023438 174.359375 Z M 190.023438 174.359375 " fill-opacity="1" fill-rule="evenodd"/><path fill="#7ed957" d="M 183.804688 110.875 C 183.804688 110.511719 183.738281 110.164062 183.597656 109.828125 C 183.460938 109.492188 183.261719 109.199219 183.007812 108.941406 C 182.75 108.6875 182.453125 108.488281 182.121094 108.351562 C 181.785156 108.210938 181.4375 108.140625 181.074219 108.140625 C 180.710938 108.140625 180.363281 108.210938 180.027344 108.351562 C 179.695312 108.488281 179.398438 108.6875 179.140625 108.941406 C 178.886719 109.199219 178.6875 109.492188 178.550781 109.828125 C 178.410156 110.164062 178.34375 110.511719 178.34375 110.875 C 178.34375 111.234375 178.410156 111.585938 178.550781 111.917969 C 178.6875 112.253906 178.886719 112.550781 179.140625 112.804688 C 179.398438 113.0625 179.695312 113.257812 180.027344 113.398438 C 180.363281 113.535156 180.710938 113.605469 181.074219 113.605469 C 181.4375 113.605469 181.785156 113.535156 182.117188 113.394531 C 182.453125 113.257812 182.75 113.058594 183.003906 112.804688 C 183.261719 112.546875 183.457031 112.253906 183.597656 111.917969 C 183.734375 111.582031 183.804688 111.234375 183.804688 110.875 Z M 183.804688 110.875 " fill-opacity="1" fill-rule="evenodd"/><path fill="#7ed957" d="M 208.707031 141.625 C 208.707031 141.175781 208.621094 140.742188 208.445312 140.324219 C 208.273438 139.90625 208.027344 139.539062 207.707031 139.21875 C 207.390625 138.898438 207.019531 138.652344 206.605469 138.480469 C 206.1875 138.308594 205.753906 138.222656 205.300781 138.222656 C 204.851562 138.222656 204.414062 138.308594 204 138.480469 C 203.582031 138.652344 203.214844 138.898438 202.894531 139.21875 C 202.574219 139.539062 202.328125 139.90625 202.15625 140.324219 C 201.984375 140.742188 201.898438 141.175781 201.898438 141.625 C 201.898438 142.078125 201.984375 142.511719 202.15625 142.929688 C 202.328125 143.347656 202.574219 143.714844 202.894531 144.035156 C 203.214844 144.351562 203.582031 144.597656 204 144.773438 C 204.414062 144.945312 204.851562 145.03125 205.300781 145.03125 C 205.753906 145.03125 206.1875 144.941406 206.601562 144.769531 C 207.019531 144.597656 207.386719 144.351562 207.707031 144.03125 C 208.027344 143.710938 208.273438 143.34375 208.445312 142.929688 C 208.617188 142.511719 208.703125 142.078125 208.707031 141.625 Z M 208.707031 141.625 " fill-opacity="1" fill-rule="evenodd"/><path fill="#7ed957" d="M 171.203125 142.628906 C 171.203125 142.339844 171.148438 142.0625 171.039062 141.796875 C 170.929688 141.53125 170.773438 141.296875 170.570312 141.09375 C 170.367188 140.886719 170.132812 140.730469 169.867188 140.621094 C 169.601562 140.511719 169.324219 140.457031 169.035156 140.457031 C 168.75 140.453125 168.472656 140.511719 168.207031 140.621094 C 167.941406 140.730469 167.703125 140.886719 167.5 141.089844 C 167.296875 141.292969 167.140625 141.527344 167.03125 141.792969 C 166.921875 142.0625 166.867188 142.335938 166.867188 142.625 C 166.867188 142.914062 166.921875 143.191406 167.03125 143.457031 C 167.140625 143.722656 167.300781 143.957031 167.503906 144.160156 C 167.707031 144.363281 167.941406 144.519531 168.207031 144.628906 C 168.472656 144.738281 168.75 144.792969 169.039062 144.792969 C 169.324219 144.792969 169.601562 144.738281 169.867188 144.628906 C 170.132812 144.519531 170.367188 144.363281 170.570312 144.160156 C 170.773438 143.957031 170.929688 143.722656 171.039062 143.457031 C 171.148438 143.191406 171.203125 142.914062 171.203125 142.628906 Z M 171.203125 142.628906 " fill-opacity="1" fill-rule="evenodd"/></svg>