<svg viewBox="0 0 34 32" fill="none" xmlns="http://www.w3.org/2000/svg">
<path d="M22.1724 5C20.0941 5 18.2497 5.86095 17 7.34074C15.7503 5.86095 13.9059 5 11.8276 5C10.0175 5.0023 8.28212 5.75798 7.00217 7.10128C5.72223 8.44458 5.00219 10.2658 5 12.1655C5 20.0194 15.9459 26.2947 16.4114 26.5585C16.5923 26.6608 16.7945 26.7143 17 26.7143C17.2055 26.7143 17.4077 26.6608 17.5886 26.5585C18.0541 26.2947 29 20.0194 29 12.1655C28.9978 10.2658 28.2778 8.44458 26.9978 7.10128C25.7179 5.75798 23.9825 5.0023 22.1724 5ZM21.6045 20.4559C20.1637 21.739 18.6236 22.8938 17 23.9083C15.3764 22.8938 13.8363 21.739 12.3955 20.4559C10.1538 18.4376 7.48276 15.3596 7.48276 12.1655C7.48276 10.9562 7.94052 9.79636 8.75533 8.94121C9.57014 8.08607 10.6753 7.60565 11.8276 7.60565C13.669 7.60565 15.2103 8.6262 15.8507 10.2699C15.9439 10.5096 16.103 10.7146 16.3077 10.8589C16.5124 11.0033 16.7534 11.0804 17 11.0804C17.2466 11.0804 17.4876 11.0033 17.6923 10.8589C17.897 10.7146 18.0561 10.5096 18.1493 10.2699C18.7897 8.6262 20.331 7.60565 22.1724 7.60565C23.3247 7.60565 24.4299 8.08607 25.2447 8.94121C26.0595 9.79636 26.5172 10.9562 26.5172 12.1655C26.5172 15.3596 23.8462 18.4376 21.6045 20.4559Z" fill="#317AC1"/>
</svg>
