<svg xmlns="http://www.w3.org/2000/svg" xmlns:xlink="http://www.w3.org/1999/xlink" width="500" zoomAndPan="magnify" viewBox="0 0 375 374.999991" height="500" preserveAspectRatio="xMidYMid meet" version="1.0"><defs><g/><clipPath id="a2c016f314"><path d="M 109.667969 137 L 186 137 L 186 209.070312 L 109.667969 209.070312 Z M 109.667969 137 " clip-rule="nonzero"/></clipPath><clipPath id="f85a3990b4"><path d="M 190 136 L 265.667969 136 L 265.667969 208 L 190 208 Z M 190 136 " clip-rule="nonzero"/></clipPath><clipPath id="a7b872a80e"><path d="M 197 85.320312 L 225 85.320312 L 225 135 L 197 135 Z M 197 85.320312 " clip-rule="nonzero"/></clipPath></defs><g clip-path="url(#a2c016f314)"><path fill="#9ac8eb" d="M 160.148438 137.421875 L 126.78125 153.066406 C 125.910156 153.480469 125.0625 153.929688 124.238281 154.425781 C 123.414062 154.917969 122.613281 155.453125 121.839844 156.023438 C 121.066406 156.597656 120.324219 157.207031 119.609375 157.851562 C 118.894531 158.496094 118.214844 159.175781 117.566406 159.886719 C 116.917969 160.597656 116.308594 161.339844 115.734375 162.109375 C 115.160156 162.882812 114.621094 163.679688 114.125 164.503906 C 113.628906 165.328125 113.175781 166.175781 112.761719 167.042969 C 112.347656 167.910156 111.976562 168.796875 111.648438 169.703125 C 111.320312 170.605469 111.039062 171.527344 110.800781 172.457031 C 110.566406 173.390625 110.375 174.332031 110.230469 175.285156 C 110.082031 176.234375 109.984375 177.191406 109.933594 178.152344 C 109.882812 179.113281 109.878906 180.074219 109.921875 181.035156 C 109.964844 181.996094 110.050781 182.953125 110.1875 183.90625 C 110.324219 184.855469 110.507812 185.800781 110.734375 186.734375 C 110.964844 187.667969 111.238281 188.589844 111.554688 189.5 C 111.875 190.40625 112.238281 191.296875 112.644531 192.167969 C 113.054688 193.039062 113.507812 193.886719 114 194.710938 C 114.496094 195.539062 115.027344 196.335938 115.601562 197.109375 C 116.171875 197.882812 116.78125 198.628906 117.425781 199.339844 C 118.070312 200.054688 118.75 200.734375 119.460938 201.382812 C 120.171875 202.03125 120.914062 202.640625 121.6875 203.21875 C 122.457031 203.792969 123.253906 204.328125 124.078125 204.824219 C 124.902344 205.320312 125.75 205.777344 126.617188 206.191406 C 127.484375 206.605469 128.371094 206.976562 129.277344 207.300781 C 130.183594 207.628906 131.101562 207.910156 132.035156 208.148438 C 132.964844 208.386719 133.90625 208.578125 134.859375 208.722656 C 135.808594 208.867188 136.765625 208.964844 137.726562 209.015625 C 138.6875 209.070312 139.648438 209.074219 140.609375 209.03125 C 141.570312 208.988281 142.527344 208.898438 143.480469 208.761719 C 144.433594 208.625 145.375 208.441406 146.3125 208.214844 C 147.246094 207.984375 148.167969 207.710938 149.074219 207.394531 C 149.980469 207.074219 150.871094 206.710938 151.746094 206.304688 L 185.007812 190.710938 L 185.191406 190.621094 L 160.226562 137.386719 Z M 161.609375 147.308594 L 132.347656 161.03125 C 132.019531 161.183594 131.671875 161.269531 131.3125 161.285156 C 130.949219 161.300781 130.597656 161.246094 130.257812 161.125 C 129.914062 161 129.609375 160.816406 129.34375 160.570312 C 129.074219 160.328125 128.863281 160.039062 128.710938 159.710938 C 128.558594 159.382812 128.472656 159.039062 128.457031 158.675781 C 128.441406 158.3125 128.492188 157.960938 128.617188 157.621094 C 128.742188 157.28125 128.925781 156.976562 129.171875 156.707031 C 129.414062 156.441406 129.703125 156.230469 130.03125 156.074219 L 159.292969 142.355469 Z M 161.609375 147.308594 " fill-opacity="1" fill-rule="evenodd"/></g><g clip-path="url(#f85a3990b4)"><path fill="#1b98d2" d="M 190.089844 190.527344 L 223.90625 205.390625 C 224.785156 205.773438 225.683594 206.113281 226.601562 206.410156 C 227.515625 206.707031 228.441406 206.960938 229.382812 207.164062 C 230.324219 207.371094 231.269531 207.53125 232.226562 207.644531 C 233.179688 207.757812 234.140625 207.824219 235.101562 207.84375 C 236.0625 207.863281 237.023438 207.835938 237.980469 207.757812 C 238.941406 207.683594 239.894531 207.5625 240.839844 207.394531 C 241.789062 207.226562 242.726562 207.015625 243.652344 206.753906 C 244.578125 206.496094 245.488281 206.191406 246.386719 205.839844 C 247.28125 205.492188 248.160156 205.101562 249.019531 204.667969 C 249.875 204.230469 250.710938 203.757812 251.523438 203.238281 C 252.335938 202.722656 253.117188 202.167969 253.875 201.574219 C 254.632812 200.980469 255.359375 200.351562 256.054688 199.6875 C 256.75 199.023438 257.414062 198.328125 258.039062 197.597656 C 258.667969 196.871094 259.257812 196.113281 259.8125 195.324219 C 260.367188 194.539062 260.878906 193.726562 261.351562 192.890625 C 261.828125 192.050781 262.257812 191.195312 262.648438 190.3125 C 263.03125 189.433594 263.375 188.535156 263.671875 187.617188 C 263.964844 186.703125 264.21875 185.777344 264.421875 184.835938 C 264.628906 183.894531 264.789062 182.949219 264.902344 181.992188 C 265.015625 181.039062 265.082031 180.078125 265.101562 179.117188 C 265.117188 178.15625 265.089844 177.195312 265.015625 176.234375 C 264.941406 175.277344 264.820312 174.324219 264.652344 173.375 C 264.484375 172.429688 264.269531 171.492188 264.007812 170.566406 C 263.75 169.640625 263.445312 168.730469 263.097656 167.832031 C 262.746094 166.9375 262.355469 166.058594 261.921875 165.199219 C 261.484375 164.34375 261.007812 163.507812 260.492188 162.695312 C 259.976562 161.886719 259.421875 161.101562 258.828125 160.34375 C 258.234375 159.585938 257.605469 158.859375 256.941406 158.164062 C 256.277344 157.46875 255.578125 156.808594 254.847656 156.179688 C 254.121094 155.550781 253.363281 154.960938 252.574219 154.410156 C 251.789062 153.855469 250.976562 153.34375 250.136719 152.867188 C 249.300781 152.394531 248.441406 151.964844 247.5625 151.574219 L 213.746094 136.710938 Z M 244.441406 154.832031 C 244.773438 154.980469 245.0625 155.183594 245.3125 155.445312 C 245.5625 155.710938 245.753906 156.007812 245.886719 156.347656 C 246.015625 156.683594 246.078125 157.035156 246.070312 157.398438 C 246.0625 157.761719 245.984375 158.105469 245.835938 158.4375 C 245.691406 158.769531 245.488281 159.0625 245.222656 159.3125 C 244.960938 159.5625 244.664062 159.753906 244.324219 159.882812 C 243.988281 160.015625 243.636719 160.078125 243.273438 160.070312 C 242.910156 160.0625 242.566406 159.984375 242.234375 159.835938 L 212.640625 146.835938 L 214.851562 141.832031 Z M 244.441406 154.832031 " fill-opacity="1" fill-rule="evenodd"/></g><g clip-path="url(#a7b872a80e)"><path fill="#7ed957" d="M 202.203125 134.457031 C 188.316406 104.855469 210.167969 106.703125 214.269531 85.390625 C 228.378906 103.292969 229.269531 124.648438 205.066406 134.632812 C 203.042969 120.066406 217.925781 108.058594 215.5 97.792969 C 215.878906 105.300781 201.808594 119.382812 202.203125 134.457031 Z M 202.203125 134.457031 " fill-opacity="1" fill-rule="evenodd"/></g><path fill="#7ed957" d="M 168.382812 136.011719 C 143.613281 126.808594 157.257812 115.484375 147.554688 100.878906 C 165.832031 103.210938 178.4375 115.035156 170.144531 134.5 C 160.730469 127.246094 162.507812 111.886719 155.28125 107.34375 C 159.777344 111.449219 159.617188 127.539062 168.382812 136.011719 Z M 168.382812 136.011719 " fill-opacity="1" fill-rule="evenodd"/><path fill="#7ed957" d="M 184.742188 168.265625 C 161.640625 144.8125 183.007812 139.25 179.761719 117.640625 C 199.15625 129.910156 207.15625 149.886719 187.546875 167.472656 C 180.75 154.320312 190.855469 137.929688 185.113281 128.996094 C 187.960938 136.003906 179.316406 154.085938 184.742188 168.265625 Z M 184.742188 168.265625 " fill-opacity="1" fill-rule="evenodd"/><path fill="#7ed957" d="M 193.960938 98.03125 C 194.230469 98.023438 194.5 98.042969 194.769531 98.089844 C 195.039062 98.136719 195.300781 98.207031 195.554688 98.304688 C 195.808594 98.402344 196.050781 98.523438 196.28125 98.667969 C 196.511719 98.8125 196.726562 98.980469 196.921875 99.167969 C 197.121094 99.355469 197.296875 99.558594 197.453125 99.78125 C 197.613281 100.003906 197.746094 100.242188 197.855469 100.488281 C 197.96875 100.738281 198.054688 100.996094 198.113281 101.261719 C 198.171875 101.527344 198.207031 101.796875 198.214844 102.066406 C 198.222656 102.339844 198.203125 102.609375 198.15625 102.878906 C 198.109375 103.148438 198.039062 103.410156 197.941406 103.664062 C 197.84375 103.917969 197.722656 104.160156 197.578125 104.390625 C 197.429688 104.621094 197.265625 104.835938 197.078125 105.03125 C 196.890625 105.230469 196.683594 105.40625 196.460938 105.5625 C 196.242188 105.722656 196.003906 105.855469 195.757812 105.964844 C 195.507812 106.078125 195.25 106.160156 194.984375 106.222656 C 194.71875 106.28125 194.449219 106.316406 194.175781 106.324219 C 193.90625 106.332031 193.636719 106.3125 193.367188 106.265625 C 193.097656 106.21875 192.835938 106.148438 192.582031 106.050781 C 192.328125 105.953125 192.085938 105.832031 191.855469 105.683594 C 191.625 105.539062 191.410156 105.375 191.214844 105.1875 C 191.015625 105 190.839844 104.792969 190.683594 104.570312 C 190.523438 104.347656 190.390625 104.113281 190.28125 103.863281 C 190.167969 103.617188 190.082031 103.359375 190.023438 103.09375 C 189.964844 102.828125 189.929688 102.558594 189.921875 102.285156 C 189.914062 102.015625 189.933594 101.742188 189.980469 101.476562 C 190.027344 101.207031 190.097656 100.945312 190.195312 100.691406 C 190.292969 100.4375 190.414062 100.195312 190.558594 99.964844 C 190.707031 99.734375 190.871094 99.519531 191.058594 99.324219 C 191.246094 99.125 191.453125 98.949219 191.675781 98.789062 C 191.894531 98.632812 192.132812 98.5 192.378906 98.386719 C 192.628906 98.277344 192.886719 98.191406 193.152344 98.132812 C 193.417969 98.070312 193.6875 98.039062 193.960938 98.03125 Z M 193.960938 98.03125 " fill-opacity="1" fill-rule="nonzero"/><path fill="#7ed957" d="M 190.023438 174.355469 C 190.023438 174.019531 189.960938 173.695312 189.832031 173.382812 C 189.699219 173.070312 189.515625 172.796875 189.277344 172.558594 C 189.039062 172.320312 188.765625 172.136719 188.453125 172.007812 C 188.140625 171.878906 187.816406 171.8125 187.476562 171.8125 C 187.140625 171.8125 186.816406 171.878906 186.503906 172.007812 C 186.191406 172.136719 185.917969 172.320312 185.679688 172.558594 C 185.441406 172.796875 185.257812 173.074219 185.128906 173.386719 C 185 173.699219 184.933594 174.023438 184.933594 174.359375 C 184.933594 174.699219 185 175.023438 185.128906 175.332031 C 185.257812 175.644531 185.445312 175.921875 185.683594 176.160156 C 185.921875 176.398438 186.195312 176.582031 186.507812 176.710938 C 186.820312 176.839844 187.144531 176.902344 187.484375 176.902344 C 187.820312 176.902344 188.144531 176.835938 188.457031 176.707031 C 188.765625 176.578125 189.039062 176.394531 189.277344 176.15625 C 189.515625 175.914062 189.699219 175.640625 189.828125 175.328125 C 189.957031 175.019531 190.023438 174.695312 190.023438 174.355469 Z M 190.023438 174.355469 " fill-opacity="1" fill-rule="evenodd"/><path fill="#7ed957" d="M 183.804688 110.875 C 183.804688 110.511719 183.738281 110.164062 183.597656 109.828125 C 183.460938 109.492188 183.261719 109.199219 183.007812 108.941406 C 182.75 108.6875 182.453125 108.488281 182.121094 108.351562 C 181.785156 108.210938 181.4375 108.140625 181.074219 108.140625 C 180.710938 108.140625 180.363281 108.210938 180.027344 108.351562 C 179.695312 108.488281 179.398438 108.6875 179.140625 108.941406 C 178.886719 109.199219 178.6875 109.492188 178.550781 109.828125 C 178.410156 110.164062 178.34375 110.511719 178.34375 110.875 C 178.34375 111.234375 178.410156 111.585938 178.550781 111.917969 C 178.6875 112.253906 178.886719 112.550781 179.140625 112.804688 C 179.398438 113.0625 179.695312 113.257812 180.027344 113.398438 C 180.363281 113.535156 180.710938 113.605469 181.074219 113.605469 C 181.4375 113.605469 181.785156 113.535156 182.117188 113.394531 C 182.453125 113.257812 182.75 113.058594 183.003906 112.804688 C 183.261719 112.546875 183.457031 112.253906 183.597656 111.917969 C 183.734375 111.582031 183.804688 111.234375 183.804688 110.875 Z M 183.804688 110.875 " fill-opacity="1" fill-rule="evenodd"/><path fill="#7ed957" d="M 208.707031 141.625 C 208.707031 141.175781 208.621094 140.742188 208.445312 140.324219 C 208.273438 139.90625 208.027344 139.539062 207.707031 139.21875 C 207.390625 138.898438 207.019531 138.652344 206.605469 138.480469 C 206.1875 138.308594 205.753906 138.222656 205.300781 138.222656 C 204.851562 138.222656 204.414062 138.308594 204 138.480469 C 203.582031 138.652344 203.214844 138.898438 202.894531 139.21875 C 202.574219 139.539062 202.328125 139.90625 202.15625 140.324219 C 201.984375 140.742188 201.898438 141.175781 201.898438 141.625 C 201.898438 142.078125 201.984375 142.511719 202.15625 142.929688 C 202.328125 143.347656 202.574219 143.714844 202.894531 144.035156 C 203.214844 144.351562 203.582031 144.597656 204 144.773438 C 204.414062 144.945312 204.851562 145.03125 205.300781 145.03125 C 205.753906 145.03125 206.1875 144.941406 206.601562 144.769531 C 207.019531 144.597656 207.386719 144.351562 207.707031 144.03125 C 208.027344 143.710938 208.273438 143.34375 208.445312 142.929688 C 208.617188 142.511719 208.703125 142.078125 208.707031 141.625 Z M 208.707031 141.625 " fill-opacity="1" fill-rule="evenodd"/><path fill="#7ed957" d="M 171.203125 142.628906 C 171.203125 142.339844 171.148438 142.0625 171.039062 141.796875 C 170.929688 141.53125 170.773438 141.296875 170.570312 141.09375 C 170.367188 140.886719 170.132812 140.730469 169.867188 140.621094 C 169.601562 140.511719 169.324219 140.457031 169.035156 140.457031 C 168.75 140.453125 168.472656 140.511719 168.207031 140.621094 C 167.941406 140.730469 167.703125 140.886719 167.5 141.089844 C 167.296875 141.292969 167.140625 141.527344 167.03125 141.792969 C 166.921875 142.0625 166.867188 142.335938 166.867188 142.625 C 166.867188 142.914062 166.921875 143.191406 167.03125 143.457031 C 167.140625 143.722656 167.300781 143.957031 167.503906 144.160156 C 167.707031 144.363281 167.941406 144.519531 168.207031 144.628906 C 168.472656 144.738281 168.75 144.792969 169.039062 144.792969 C 169.324219 144.792969 169.601562 144.738281 169.867188 144.628906 C 170.132812 144.519531 170.367188 144.363281 170.570312 144.160156 C 170.773438 143.957031 170.929688 143.722656 171.039062 143.457031 C 171.148438 143.191406 171.203125 142.914062 171.203125 142.628906 Z M 171.203125 142.628906 " fill-opacity="1" fill-rule="evenodd"/><g fill="#1b98d2" fill-opacity="1"><g transform="translate(43.607371, 264.570979)"><g><path d="M 1.234375 0 L 8.40625 -33.921875 L 17.859375 -33.921875 C 20.617188 -33.921875 22.828125 -33.503906 24.484375 -32.671875 C 26.148438 -31.847656 27.359375 -30.691406 28.109375 -29.203125 C 28.859375 -27.722656 29.234375 -26 29.234375 -24.03125 C 29.234375 -22.019531 28.859375 -20.265625 28.109375 -18.765625 C 27.367188 -17.265625 26.328125 -16.015625 24.984375 -15.015625 C 23.648438 -14.023438 22.085938 -13.285156 20.296875 -12.796875 C 18.503906 -12.304688 16.554688 -12.0625 14.453125 -12.0625 L 10.828125 -12.0625 L 8.3125 0 Z M 12.109375 -17.953125 L 15.015625 -17.953125 C 16.421875 -17.953125 17.648438 -18.179688 18.703125 -18.640625 C 19.765625 -19.109375 20.59375 -19.785156 21.1875 -20.671875 C 21.789062 -21.554688 22.09375 -22.613281 22.09375 -23.84375 C 22.09375 -25.269531 21.71875 -26.320312 20.96875 -27 C 20.21875 -27.6875 19.09375 -28.03125 17.59375 -28.03125 L 14.25 -28.03125 Z M 12.109375 -17.953125 "/></g></g></g><g fill="#1b98d2" fill-opacity="1"><g transform="translate(69.261212, 264.570979)"><g><path d="M 0.859375 0 L 8.515625 -36.09375 L 15.5 -36.09375 L 14.15625 -29.84375 C 14.007812 -29.125 13.816406 -28.3125 13.578125 -27.40625 C 13.335938 -26.507812 13.085938 -25.625 12.828125 -24.75 C 12.566406 -23.875 12.328125 -23.117188 12.109375 -22.484375 L 12.296875 -22.484375 C 12.929688 -23.273438 13.613281 -23.96875 14.34375 -24.5625 C 15.082031 -25.15625 15.882812 -25.613281 16.75 -25.9375 C 17.613281 -26.257812 18.554688 -26.421875 19.578125 -26.421875 C 21.066406 -26.421875 22.304688 -26.113281 23.296875 -25.5 C 24.296875 -24.894531 25.039062 -24.035156 25.53125 -22.921875 C 26.03125 -21.804688 26.28125 -20.484375 26.28125 -18.953125 C 26.28125 -18.378906 26.234375 -17.738281 26.140625 -17.03125 C 26.054688 -16.320312 25.925781 -15.570312 25.75 -14.78125 L 22.671875 0 L 15.6875 0 L 18.859375 -15.15625 C 18.984375 -15.675781 19.078125 -16.164062 19.140625 -16.625 C 19.203125 -17.09375 19.234375 -17.519531 19.234375 -17.90625 C 19.234375 -18.882812 19.023438 -19.601562 18.609375 -20.0625 C 18.191406 -20.53125 17.566406 -20.765625 16.734375 -20.765625 C 15.679688 -20.765625 14.726562 -20.3125 13.875 -19.40625 C 13.019531 -18.5 12.28125 -17.285156 11.65625 -15.765625 C 11.03125 -14.253906 10.515625 -12.578125 10.109375 -10.734375 L 7.84375 0 Z M 0.859375 0 "/></g></g></g><g fill="#1b98d2" fill-opacity="1"><g transform="translate(94.636619, 264.570979)"><g><path d="M 9.421875 0.46875 C 8.171875 0.46875 6.988281 0.160156 5.875 -0.453125 C 4.757812 -1.078125 3.847656 -2.078125 3.140625 -3.453125 C 2.441406 -4.828125 2.09375 -6.65625 2.09375 -8.9375 C 2.09375 -10.632812 2.269531 -12.316406 2.625 -13.984375 C 2.988281 -15.660156 3.515625 -17.242188 4.203125 -18.734375 C 4.898438 -20.222656 5.738281 -21.546875 6.71875 -22.703125 C 7.695312 -23.859375 8.804688 -24.765625 10.046875 -25.421875 C 11.296875 -26.085938 12.648438 -26.421875 14.109375 -26.421875 C 15.203125 -26.421875 16.160156 -26.257812 16.984375 -25.9375 C 17.804688 -25.625 18.507812 -25.179688 19.09375 -24.609375 C 19.675781 -24.046875 20.15625 -23.382812 20.53125 -22.625 L 20.71875 -22.625 L 22.046875 -25.9375 L 27.421875 -25.9375 L 21.90625 0 L 16.6875 0 L 17 -3.359375 L 16.828125 -3.359375 C 16.203125 -2.609375 15.523438 -1.945312 14.796875 -1.375 C 14.078125 -0.800781 13.273438 -0.347656 12.390625 -0.015625 C 11.503906 0.304688 10.515625 0.46875 9.421875 0.46875 Z M 12.15625 -5.171875 C 13.113281 -5.171875 14.003906 -5.546875 14.828125 -6.296875 C 15.648438 -7.046875 16.351562 -8.023438 16.9375 -9.234375 C 17.519531 -10.441406 17.9375 -11.71875 18.1875 -13.0625 C 18.3125 -13.675781 18.398438 -14.296875 18.453125 -14.921875 C 18.503906 -15.554688 18.53125 -16.234375 18.53125 -16.953125 C 18.53125 -18.054688 18.238281 -18.96875 17.65625 -19.6875 C 17.082031 -20.40625 16.296875 -20.765625 15.296875 -20.765625 C 14.609375 -20.765625 13.957031 -20.539062 13.34375 -20.09375 C 12.738281 -19.65625 12.179688 -19.050781 11.671875 -18.28125 C 11.160156 -17.519531 10.710938 -16.648438 10.328125 -15.671875 C 9.953125 -14.691406 9.664062 -13.648438 9.46875 -12.546875 C 9.269531 -11.453125 9.171875 -10.351562 9.171875 -9.25 C 9.171875 -7.90625 9.429688 -6.890625 9.953125 -6.203125 C 10.472656 -5.515625 11.207031 -5.171875 12.15625 -5.171875 Z M 12.15625 -5.171875 "/></g></g></g><g fill="#1b98d2" fill-opacity="1"><g transform="translate(119.547968, 264.570979)"><g><path d="M 0.859375 0 L 6.359375 -25.9375 L 11.6875 -25.9375 L 11.203125 -21.140625 L 11.46875 -21.140625 C 12.15625 -22.234375 12.910156 -23.175781 13.734375 -23.96875 C 14.554688 -24.757812 15.445312 -25.363281 16.40625 -25.78125 C 17.363281 -26.207031 18.40625 -26.421875 19.53125 -26.421875 C 19.90625 -26.421875 20.304688 -26.394531 20.734375 -26.34375 C 21.160156 -26.300781 21.503906 -26.242188 21.765625 -26.171875 L 20.234375 -19.4375 C 19.984375 -19.53125 19.648438 -19.613281 19.234375 -19.6875 C 18.828125 -19.769531 18.382812 -19.8125 17.90625 -19.8125 C 17.039062 -19.8125 16.210938 -19.632812 15.421875 -19.28125 C 14.640625 -18.9375 13.914062 -18.425781 13.25 -17.75 C 12.582031 -17.070312 11.992188 -16.21875 11.484375 -15.1875 C 10.984375 -14.15625 10.585938 -12.957031 10.296875 -11.59375 L 7.84375 0 Z M 0.859375 0 "/></g></g></g><g fill="#1b98d2" fill-opacity="1"><g transform="translate(136.222283, 264.570979)"><g><path d="M 0.859375 0 L 6.359375 -25.9375 L 11.6875 -25.9375 L 11.203125 -21.140625 L 11.421875 -21.140625 C 12.078125 -22.171875 12.804688 -23.082031 13.609375 -23.875 C 14.421875 -24.664062 15.316406 -25.285156 16.296875 -25.734375 C 17.273438 -26.191406 18.367188 -26.421875 19.578125 -26.421875 C 21.359375 -26.421875 22.738281 -25.953125 23.71875 -25.015625 C 24.707031 -24.085938 25.351562 -22.796875 25.65625 -21.140625 L 25.84375 -21.140625 C 26.5 -22.171875 27.234375 -23.082031 28.046875 -23.875 C 28.867188 -24.664062 29.785156 -25.285156 30.796875 -25.734375 C 31.804688 -26.191406 32.910156 -26.421875 34.109375 -26.421875 C 36.273438 -26.421875 37.894531 -25.75 38.96875 -24.40625 C 40.039062 -23.0625 40.578125 -21.242188 40.578125 -18.953125 C 40.578125 -18.378906 40.53125 -17.738281 40.4375 -17.03125 C 40.34375 -16.320312 40.210938 -15.570312 40.046875 -14.78125 L 36.953125 0 L 29.96875 0 L 33.171875 -15.15625 C 33.296875 -15.675781 33.390625 -16.164062 33.453125 -16.625 C 33.515625 -17.09375 33.546875 -17.519531 33.546875 -17.90625 C 33.546875 -18.882812 33.351562 -19.601562 32.96875 -20.0625 C 32.59375 -20.53125 32.03125 -20.765625 31.28125 -20.765625 C 30.46875 -20.765625 29.722656 -20.507812 29.046875 -20 C 28.367188 -19.488281 27.75 -18.773438 27.1875 -17.859375 C 26.632812 -16.953125 26.144531 -15.894531 25.71875 -14.6875 C 25.289062 -13.476562 24.9375 -12.175781 24.65625 -10.78125 L 22.4375 0 L 15.453125 0 L 18.625 -15.15625 C 18.75 -15.675781 18.84375 -16.164062 18.90625 -16.625 C 18.96875 -17.09375 19 -17.519531 19 -17.90625 C 19 -18.882812 18.804688 -19.601562 18.421875 -20.0625 C 18.046875 -20.53125 17.484375 -20.765625 16.734375 -20.765625 C 15.941406 -20.765625 15.203125 -20.5 14.515625 -19.96875 C 13.835938 -19.445312 13.21875 -18.722656 12.65625 -17.796875 C 12.101562 -16.878906 11.613281 -15.816406 11.1875 -14.609375 C 10.769531 -13.410156 10.410156 -12.117188 10.109375 -10.734375 L 7.84375 0 Z M 0.859375 0 "/></g></g></g><g fill="#1b98d2" fill-opacity="1"><g transform="translate(175.890673, 264.570979)"><g><path d="M 9.421875 0.46875 C 8.171875 0.46875 6.988281 0.160156 5.875 -0.453125 C 4.757812 -1.078125 3.847656 -2.078125 3.140625 -3.453125 C 2.441406 -4.828125 2.09375 -6.65625 2.09375 -8.9375 C 2.09375 -10.632812 2.269531 -12.316406 2.625 -13.984375 C 2.988281 -15.660156 3.515625 -17.242188 4.203125 -18.734375 C 4.898438 -20.222656 5.738281 -21.546875 6.71875 -22.703125 C 7.695312 -23.859375 8.804688 -24.765625 10.046875 -25.421875 C 11.296875 -26.085938 12.648438 -26.421875 14.109375 -26.421875 C 15.203125 -26.421875 16.160156 -26.257812 16.984375 -25.9375 C 17.804688 -25.625 18.507812 -25.179688 19.09375 -24.609375 C 19.675781 -24.046875 20.15625 -23.382812 20.53125 -22.625 L 20.71875 -22.625 L 22.046875 -25.9375 L 27.421875 -25.9375 L 21.90625 0 L 16.6875 0 L 17 -3.359375 L 16.828125 -3.359375 C 16.203125 -2.609375 15.523438 -1.945312 14.796875 -1.375 C 14.078125 -0.800781 13.273438 -0.347656 12.390625 -0.015625 C 11.503906 0.304688 10.515625 0.46875 9.421875 0.46875 Z M 12.15625 -5.171875 C 13.113281 -5.171875 14.003906 -5.546875 14.828125 -6.296875 C 15.648438 -7.046875 16.351562 -8.023438 16.9375 -9.234375 C 17.519531 -10.441406 17.9375 -11.71875 18.1875 -13.0625 C 18.3125 -13.675781 18.398438 -14.296875 18.453125 -14.921875 C 18.503906 -15.554688 18.53125 -16.234375 18.53125 -16.953125 C 18.53125 -18.054688 18.238281 -18.96875 17.65625 -19.6875 C 17.082031 -20.40625 16.296875 -20.765625 15.296875 -20.765625 C 14.609375 -20.765625 13.957031 -20.539062 13.34375 -20.09375 C 12.738281 -19.65625 12.179688 -19.050781 11.671875 -18.28125 C 11.160156 -17.519531 10.710938 -16.648438 10.328125 -15.671875 C 9.953125 -14.691406 9.664062 -13.648438 9.46875 -12.546875 C 9.269531 -11.453125 9.171875 -10.351562 9.171875 -9.25 C 9.171875 -7.90625 9.429688 -6.890625 9.953125 -6.203125 C 10.472656 -5.515625 11.207031 -5.171875 12.15625 -5.171875 Z M 12.15625 -5.171875 "/></g></g></g><g fill="#9ac8eb" fill-opacity="1"><g transform="translate(200.802677, 264.570979)"><g><path d="M -2.859375 0 L 14.921875 -33.921875 L 23.578125 -33.921875 L 26.984375 0 L 20.09375 0 L 19.53125 -8.078125 L 8.5625 -8.078125 L 4.578125 0 Z M 11.46875 -14.109375 L 19.1875 -14.109375 L 18.578125 -22.859375 C 18.515625 -23.785156 18.453125 -24.71875 18.390625 -25.65625 C 18.335938 -26.601562 18.328125 -27.570312 18.359375 -28.5625 L 18.234375 -28.5625 C 17.941406 -27.707031 17.601562 -26.851562 17.21875 -26 C 16.832031 -25.15625 16.398438 -24.253906 15.921875 -23.296875 Z M 11.46875 -14.109375 "/></g></g></g><g fill="#9ac8eb" fill-opacity="1"><g transform="translate(227.315019, 264.570979)"><g><path d="M 9.421875 0.46875 C 8.171875 0.46875 6.988281 0.160156 5.875 -0.453125 C 4.757812 -1.078125 3.847656 -2.082031 3.140625 -3.46875 C 2.441406 -4.851562 2.09375 -6.691406 2.09375 -8.984375 C 2.09375 -10.660156 2.269531 -12.332031 2.625 -14 C 2.988281 -15.675781 3.515625 -17.257812 4.203125 -18.75 C 4.898438 -20.25 5.738281 -21.570312 6.71875 -22.71875 C 7.695312 -23.875 8.804688 -24.78125 10.046875 -25.4375 C 11.296875 -26.09375 12.648438 -26.421875 14.109375 -26.421875 C 15.140625 -26.421875 16.015625 -26.25 16.734375 -25.90625 C 17.453125 -25.570312 18.070312 -25.117188 18.59375 -24.546875 C 19.125 -23.972656 19.59375 -23.332031 20 -22.625 L 20.1875 -22.625 C 20.1875 -22.71875 20.207031 -23.054688 20.25 -23.640625 C 20.300781 -24.234375 20.375 -24.910156 20.46875 -25.671875 C 20.5625 -26.441406 20.675781 -27.148438 20.8125 -27.796875 L 22.578125 -36.09375 L 29.5625 -36.09375 L 21.90625 0 L 16.59375 0 L 17 -3.359375 L 16.828125 -3.359375 C 16.203125 -2.609375 15.53125 -1.945312 14.8125 -1.375 C 14.09375 -0.800781 13.289062 -0.347656 12.40625 -0.015625 C 11.53125 0.304688 10.535156 0.46875 9.421875 0.46875 Z M 12.34375 -5.171875 C 13.070312 -5.171875 13.734375 -5.367188 14.328125 -5.765625 C 14.921875 -6.160156 15.445312 -6.6875 15.90625 -7.34375 C 16.363281 -8 16.757812 -8.734375 17.09375 -9.546875 C 17.425781 -10.367188 17.695312 -11.207031 17.90625 -12.0625 C 18.125 -12.925781 18.28125 -13.757812 18.375 -14.5625 C 18.476562 -15.375 18.53125 -16.082031 18.53125 -16.6875 C 18.53125 -17.914062 18.238281 -18.898438 17.65625 -19.640625 C 17.082031 -20.390625 16.296875 -20.765625 15.296875 -20.765625 C 14.609375 -20.765625 13.957031 -20.539062 13.34375 -20.09375 C 12.738281 -19.65625 12.179688 -19.050781 11.671875 -18.28125 C 11.160156 -17.519531 10.710938 -16.648438 10.328125 -15.671875 C 9.953125 -14.691406 9.664062 -13.648438 9.46875 -12.546875 C 9.269531 -11.453125 9.171875 -10.351562 9.171875 -9.25 C 9.171875 -7.90625 9.441406 -6.890625 9.984375 -6.203125 C 10.535156 -5.515625 11.320312 -5.171875 12.34375 -5.171875 Z M 12.34375 -5.171875 "/></g></g></g><g fill="#9ac8eb" fill-opacity="1"><g transform="translate(252.226368, 264.570979)"><g><path d="M 0.859375 0 L 6.359375 -25.9375 L 11.6875 -25.9375 L 11.203125 -21.140625 L 11.421875 -21.140625 C 12.078125 -22.171875 12.804688 -23.082031 13.609375 -23.875 C 14.421875 -24.664062 15.316406 -25.285156 16.296875 -25.734375 C 17.273438 -26.191406 18.367188 -26.421875 19.578125 -26.421875 C 21.359375 -26.421875 22.738281 -25.953125 23.71875 -25.015625 C 24.707031 -24.085938 25.351562 -22.796875 25.65625 -21.140625 L 25.84375 -21.140625 C 26.5 -22.171875 27.234375 -23.082031 28.046875 -23.875 C 28.867188 -24.664062 29.785156 -25.285156 30.796875 -25.734375 C 31.804688 -26.191406 32.910156 -26.421875 34.109375 -26.421875 C 36.273438 -26.421875 37.894531 -25.75 38.96875 -24.40625 C 40.039062 -23.0625 40.578125 -21.242188 40.578125 -18.953125 C 40.578125 -18.378906 40.53125 -17.738281 40.4375 -17.03125 C 40.34375 -16.320312 40.210938 -15.570312 40.046875 -14.78125 L 36.953125 0 L 29.96875 0 L 33.171875 -15.15625 C 33.296875 -15.675781 33.390625 -16.164062 33.453125 -16.625 C 33.515625 -17.09375 33.546875 -17.519531 33.546875 -17.90625 C 33.546875 -18.882812 33.351562 -19.601562 32.96875 -20.0625 C 32.59375 -20.53125 32.03125 -20.765625 31.28125 -20.765625 C 30.46875 -20.765625 29.722656 -20.507812 29.046875 -20 C 28.367188 -19.488281 27.75 -18.773438 27.1875 -17.859375 C 26.632812 -16.953125 26.144531 -15.894531 25.71875 -14.6875 C 25.289062 -13.476562 24.9375 -12.175781 24.65625 -10.78125 L 22.4375 0 L 15.453125 0 L 18.625 -15.15625 C 18.75 -15.675781 18.84375 -16.164062 18.90625 -16.625 C 18.96875 -17.09375 19 -17.519531 19 -17.90625 C 19 -18.882812 18.804688 -19.601562 18.421875 -20.0625 C 18.046875 -20.53125 17.484375 -20.765625 16.734375 -20.765625 C 15.941406 -20.765625 15.203125 -20.5 14.515625 -19.96875 C 13.835938 -19.445312 13.21875 -18.722656 12.65625 -17.796875 C 12.101562 -16.878906 11.613281 -15.816406 11.1875 -14.609375 C 10.769531 -13.410156 10.410156 -12.117188 10.109375 -10.734375 L 7.84375 0 Z M 0.859375 0 "/></g></g></g><g fill="#9ac8eb" fill-opacity="1"><g transform="translate(291.894758, 264.570979)"><g><path d="M 0.859375 0 L 6.359375 -25.9375 L 13.34375 -25.9375 L 7.84375 0 Z M 10.96875 -29.15625 C 9.976562 -29.15625 9.144531 -29.375 8.46875 -29.8125 C 7.800781 -30.25 7.46875 -30.984375 7.46875 -32.015625 C 7.46875 -32.910156 7.632812 -33.660156 7.96875 -34.265625 C 8.300781 -34.867188 8.785156 -35.320312 9.421875 -35.625 C 10.054688 -35.9375 10.8125 -36.09375 11.6875 -36.09375 C 12.613281 -36.09375 13.421875 -35.890625 14.109375 -35.484375 C 14.804688 -35.085938 15.15625 -34.363281 15.15625 -33.3125 C 15.15625 -32.070312 14.8125 -31.066406 14.125 -30.296875 C 13.445312 -29.535156 12.394531 -29.15625 10.96875 -29.15625 Z M 10.96875 -29.15625 "/></g></g></g><g fill="#9ac8eb" fill-opacity="1"><g transform="translate(302.675538, 264.570979)"><g><path d="M 0.859375 0 L 6.359375 -25.9375 L 11.6875 -25.9375 L 11.203125 -21.140625 L 11.421875 -21.140625 C 12.078125 -22.171875 12.804688 -23.082031 13.609375 -23.875 C 14.421875 -24.664062 15.316406 -25.285156 16.296875 -25.734375 C 17.273438 -26.191406 18.367188 -26.421875 19.578125 -26.421875 C 21.066406 -26.421875 22.304688 -26.113281 23.296875 -25.5 C 24.296875 -24.894531 25.039062 -24.035156 25.53125 -22.921875 C 26.03125 -21.804688 26.28125 -20.484375 26.28125 -18.953125 C 26.28125 -18.378906 26.234375 -17.738281 26.140625 -17.03125 C 26.054688 -16.320312 25.925781 -15.570312 25.75 -14.78125 L 22.671875 0 L 15.6875 0 L 18.859375 -15.15625 C 18.984375 -15.675781 19.078125 -16.164062 19.140625 -16.625 C 19.203125 -17.09375 19.234375 -17.519531 19.234375 -17.90625 C 19.234375 -18.882812 19.023438 -19.601562 18.609375 -20.0625 C 18.191406 -20.53125 17.566406 -20.765625 16.734375 -20.765625 C 15.679688 -20.765625 14.726562 -20.3125 13.875 -19.40625 C 13.019531 -18.5 12.28125 -17.285156 11.65625 -15.765625 C 11.03125 -14.253906 10.515625 -12.578125 10.109375 -10.734375 L 7.84375 0 Z M 0.859375 0 "/></g></g></g><g fill="#7ed957" fill-opacity="1"><g transform="translate(46.009918, 286.23394)"><g><path d="M 4.25 -8.875 C 5.5625 -8.875 6.710938 -8.546875 7.703125 -7.890625 L 6.859375 -6.15625 C 6.398438 -6.414062 5.90625 -6.628906 5.375 -6.796875 C 4.851562 -6.972656 4.414062 -7.0625 4.0625 -7.0625 C 3.414062 -7.0625 3.09375 -6.847656 3.09375 -6.421875 C 3.09375 -6.148438 3.25 -5.929688 3.5625 -5.765625 C 3.882812 -5.597656 4.269531 -5.453125 4.71875 -5.328125 C 5.175781 -5.210938 5.632812 -5.066406 6.09375 -4.890625 C 6.550781 -4.722656 6.9375 -4.445312 7.25 -4.0625 C 7.570312 -3.675781 7.734375 -3.191406 7.734375 -2.609375 C 7.734375 -1.765625 7.398438 -1.101562 6.734375 -0.625 C 6.078125 -0.15625 5.238281 0.078125 4.21875 0.078125 C 3.5 0.078125 2.78125 -0.046875 2.0625 -0.296875 C 1.351562 -0.546875 0.738281 -0.890625 0.21875 -1.328125 L 1.078125 -3.046875 C 1.515625 -2.660156 2.035156 -2.34375 2.640625 -2.09375 C 3.242188 -1.851562 3.78125 -1.734375 4.25 -1.734375 C 4.601562 -1.734375 4.878906 -1.796875 5.078125 -1.921875 C 5.285156 -2.054688 5.390625 -2.25 5.390625 -2.5 C 5.390625 -2.738281 5.273438 -2.9375 5.046875 -3.09375 C 4.816406 -3.257812 4.53125 -3.378906 4.1875 -3.453125 C 3.84375 -3.535156 3.46875 -3.644531 3.0625 -3.78125 C 2.664062 -3.914062 2.296875 -4.0625 1.953125 -4.21875 C 1.609375 -4.382812 1.320312 -4.640625 1.09375 -4.984375 C 0.863281 -5.328125 0.75 -5.742188 0.75 -6.234375 C 0.75 -7.035156 1.066406 -7.675781 1.703125 -8.15625 C 2.347656 -8.632812 3.195312 -8.875 4.25 -8.875 Z M 4.25 -8.875 "/></g></g></g><g fill="#7ed957" fill-opacity="1"><g transform="translate(55.952261, 286.23394)"><g><path d="M 3.109375 0 L 0.875 0 L 0.875 -8.765625 L 3.109375 -8.765625 Z M 3.109375 0 "/></g></g></g><g fill="#7ed957" fill-opacity="1"><g transform="translate(61.812807, 286.23394)"><g><path d="M 6.703125 -4.46875 L 8.640625 -4.46875 L 8.640625 -1.046875 C 8.160156 -0.703125 7.582031 -0.425781 6.90625 -0.21875 C 6.238281 -0.0078125 5.597656 0.09375 4.984375 0.09375 C 3.648438 0.09375 2.535156 -0.332031 1.640625 -1.1875 C 0.742188 -2.039062 0.296875 -3.109375 0.296875 -4.390625 C 0.296875 -5.660156 0.753906 -6.71875 1.671875 -7.5625 C 2.597656 -8.414062 3.753906 -8.84375 5.140625 -8.84375 C 5.785156 -8.84375 6.429688 -8.722656 7.078125 -8.484375 C 7.722656 -8.253906 8.269531 -7.941406 8.71875 -7.546875 L 7.46875 -6.03125 C 7.15625 -6.320312 6.785156 -6.550781 6.359375 -6.71875 C 5.941406 -6.894531 5.53125 -6.984375 5.125 -6.984375 C 4.40625 -6.984375 3.800781 -6.734375 3.3125 -6.234375 C 2.820312 -5.734375 2.578125 -5.117188 2.578125 -4.390625 C 2.578125 -3.640625 2.820312 -3.015625 3.3125 -2.515625 C 3.8125 -2.015625 4.425781 -1.765625 5.15625 -1.765625 C 5.625 -1.765625 6.140625 -1.90625 6.703125 -2.1875 Z M 6.703125 -4.46875 "/></g></g></g><g fill="#7ed957" fill-opacity="1"><g transform="translate(72.994714, 286.23394)"><g><path d="M 8.96875 0 L 7 0 L 2.96875 -5.40625 L 2.96875 0 L 0.875 0 L 0.875 -8.765625 L 2.84375 -8.765625 L 6.890625 -3.359375 L 6.890625 -8.765625 L 8.96875 -8.765625 Z M 8.96875 0 "/></g></g></g><g fill="#7ed957" fill-opacity="1"><g transform="translate(84.715012, 286.23394)"><g><path d="M 6.703125 -1.609375 L 2.875 -1.609375 L 2.234375 0 L -0.0625 0 L 3.71875 -8.765625 L 6.015625 -8.765625 L 9.71875 0 L 7.328125 0 Z M 6.046875 -3.3125 L 4.796875 -6.546875 L 3.515625 -3.3125 Z M 6.046875 -3.3125 "/></g></g></g><g fill="#7ed957" fill-opacity="1"><g transform="translate(96.234978, 286.23394)"><g><path d="M 3.109375 -1.859375 L 6.828125 -1.859375 L 6.828125 0 L 0.875 0 L 0.875 -8.765625 L 3.109375 -8.765625 Z M 3.109375 -1.859375 "/></g></g></g><g fill="#7ed957" fill-opacity="1"><g transform="translate(105.125567, 286.23394)"><g><path d="M 7.75 -7.015625 L 3.109375 -7.015625 L 3.109375 -5.28125 L 7.296875 -5.28125 L 7.296875 -3.515625 L 3.109375 -3.515625 L 3.109375 -1.75 L 7.875 -1.75 L 7.875 0 L 0.875 0 L 0.875 -8.765625 L 7.75 -8.765625 Z M 7.75 -7.015625 "/></g></g></g><g fill="#7ed957" fill-opacity="1"><g transform="translate(115.443533, 286.23394)"><g><path d="M 8.015625 -7.34375 L 3.328125 -1.765625 L 8.09375 -1.765625 L 8.09375 0 L 0.34375 0 L 0.34375 -1.421875 L 5.046875 -7 L 0.515625 -7 L 0.515625 -8.765625 L 8.015625 -8.765625 Z M 8.015625 -7.34375 "/></g></g></g><g fill="#7ed957" fill-opacity="1"><g transform="translate(125.77402, 286.23394)"><g><path d="M 0.75 -1.703125 C 0.945312 -1.898438 1.203125 -2 1.515625 -2 C 1.828125 -2 2.078125 -1.898438 2.265625 -1.703125 C 2.460938 -1.515625 2.5625 -1.265625 2.5625 -0.953125 C 2.5625 -0.640625 2.460938 -0.382812 2.265625 -0.1875 C 2.078125 0 1.828125 0.09375 1.515625 0.09375 C 1.203125 0.09375 0.945312 0 0.75 -0.1875 C 0.5625 -0.382812 0.46875 -0.640625 0.46875 -0.953125 C 0.46875 -1.265625 0.5625 -1.515625 0.75 -1.703125 Z M 0.75 -1.703125 "/></g></g></g><g fill="#7ed957" fill-opacity="1"><g transform="translate(130.695508, 286.23394)"><g/></g></g><g fill="#7ed957" fill-opacity="1"><g transform="translate(135.47927, 286.23394)"><g><path d="M 6.171875 0 L 4.859375 -2.46875 L 3.109375 -2.46875 L 3.109375 0 L 0.875 0 L 0.875 -8.765625 L 4.796875 -8.765625 C 5.960938 -8.765625 6.863281 -8.5 7.5 -7.96875 C 8.132812 -7.445312 8.453125 -6.695312 8.453125 -5.71875 C 8.453125 -4.363281 7.921875 -3.421875 6.859375 -2.890625 L 8.703125 0 Z M 3.109375 -4.21875 L 4.796875 -4.21875 C 5.285156 -4.21875 5.660156 -4.335938 5.921875 -4.578125 C 6.191406 -4.828125 6.328125 -5.179688 6.328125 -5.640625 C 6.328125 -6.085938 6.191406 -6.425781 5.921875 -6.65625 C 5.660156 -6.894531 5.285156 -7.015625 4.796875 -7.015625 L 3.109375 -7.015625 Z M 3.109375 -4.21875 "/></g></g></g><g fill="#7ed957" fill-opacity="1"><g transform="translate(146.423284, 286.23394)"><g><path d="M 6.546875 -10.953125 L 4.90625 -9.53125 L 3.265625 -9.53125 L 4.59375 -11.640625 Z M 7.75 -7.015625 L 3.109375 -7.015625 L 3.109375 -5.28125 L 7.296875 -5.28125 L 7.296875 -3.515625 L 3.109375 -3.515625 L 3.109375 -1.75 L 7.875 -1.75 L 7.875 0 L 0.875 0 L 0.875 -8.765625 L 7.75 -8.765625 Z M 7.75 -7.015625 "/></g></g></g><g fill="#7ed957" fill-opacity="1"><g transform="translate(156.741244, 286.23394)"><g><path d="M 6.703125 -1.609375 L 2.875 -1.609375 L 2.234375 0 L -0.0625 0 L 3.71875 -8.765625 L 6.015625 -8.765625 L 9.71875 0 L 7.328125 0 Z M 6.046875 -3.3125 L 4.796875 -6.546875 L 3.515625 -3.3125 Z M 6.046875 -3.3125 "/></g></g></g><g fill="#7ed957" fill-opacity="1"><g transform="translate(168.261204, 286.23394)"><g><path d="M 6.703125 -4.46875 L 8.640625 -4.46875 L 8.640625 -1.046875 C 8.160156 -0.703125 7.582031 -0.425781 6.90625 -0.21875 C 6.238281 -0.0078125 5.597656 0.09375 4.984375 0.09375 C 3.648438 0.09375 2.535156 -0.332031 1.640625 -1.1875 C 0.742188 -2.039062 0.296875 -3.109375 0.296875 -4.390625 C 0.296875 -5.660156 0.753906 -6.71875 1.671875 -7.5625 C 2.597656 -8.414062 3.753906 -8.84375 5.140625 -8.84375 C 5.785156 -8.84375 6.429688 -8.722656 7.078125 -8.484375 C 7.722656 -8.253906 8.269531 -7.941406 8.71875 -7.546875 L 7.46875 -6.03125 C 7.15625 -6.320312 6.785156 -6.550781 6.359375 -6.71875 C 5.941406 -6.894531 5.53125 -6.984375 5.125 -6.984375 C 4.40625 -6.984375 3.800781 -6.734375 3.3125 -6.234375 C 2.820312 -5.734375 2.578125 -5.117188 2.578125 -4.390625 C 2.578125 -3.640625 2.820312 -3.015625 3.3125 -2.515625 C 3.8125 -2.015625 4.425781 -1.765625 5.15625 -1.765625 C 5.625 -1.765625 6.140625 -1.90625 6.703125 -2.1875 Z M 6.703125 -4.46875 "/></g></g></g><g fill="#7ed957" fill-opacity="1"><g transform="translate(179.443104, 286.23394)"><g><path d="M 3.109375 0 L 0.875 0 L 0.875 -8.765625 L 3.109375 -8.765625 Z M 3.109375 0 "/></g></g></g><g fill="#7ed957" fill-opacity="1"><g transform="translate(185.303645, 286.23394)"><g><path d="M 4.25 -8.875 C 5.5625 -8.875 6.710938 -8.546875 7.703125 -7.890625 L 6.859375 -6.15625 C 6.398438 -6.414062 5.90625 -6.628906 5.375 -6.796875 C 4.851562 -6.972656 4.414062 -7.0625 4.0625 -7.0625 C 3.414062 -7.0625 3.09375 -6.847656 3.09375 -6.421875 C 3.09375 -6.148438 3.25 -5.929688 3.5625 -5.765625 C 3.882812 -5.597656 4.269531 -5.453125 4.71875 -5.328125 C 5.175781 -5.210938 5.632812 -5.066406 6.09375 -4.890625 C 6.550781 -4.722656 6.9375 -4.445312 7.25 -4.0625 C 7.570312 -3.675781 7.734375 -3.191406 7.734375 -2.609375 C 7.734375 -1.765625 7.398438 -1.101562 6.734375 -0.625 C 6.078125 -0.15625 5.238281 0.078125 4.21875 0.078125 C 3.5 0.078125 2.78125 -0.046875 2.0625 -0.296875 C 1.351562 -0.546875 0.738281 -0.890625 0.21875 -1.328125 L 1.078125 -3.046875 C 1.515625 -2.660156 2.035156 -2.34375 2.640625 -2.09375 C 3.242188 -1.851562 3.78125 -1.734375 4.25 -1.734375 C 4.601562 -1.734375 4.878906 -1.796875 5.078125 -1.921875 C 5.285156 -2.054688 5.390625 -2.25 5.390625 -2.5 C 5.390625 -2.738281 5.273438 -2.9375 5.046875 -3.09375 C 4.816406 -3.257812 4.53125 -3.378906 4.1875 -3.453125 C 3.84375 -3.535156 3.46875 -3.644531 3.0625 -3.78125 C 2.664062 -3.914062 2.296875 -4.0625 1.953125 -4.21875 C 1.609375 -4.382812 1.320312 -4.640625 1.09375 -4.984375 C 0.863281 -5.328125 0.75 -5.742188 0.75 -6.234375 C 0.75 -7.035156 1.066406 -7.675781 1.703125 -8.15625 C 2.347656 -8.632812 3.195312 -8.875 4.25 -8.875 Z M 4.25 -8.875 "/></g></g></g><g fill="#7ed957" fill-opacity="1"><g transform="translate(195.245981, 286.23394)"><g><path d="M 4.25 -8.875 C 5.5625 -8.875 6.710938 -8.546875 7.703125 -7.890625 L 6.859375 -6.15625 C 6.398438 -6.414062 5.90625 -6.628906 5.375 -6.796875 C 4.851562 -6.972656 4.414062 -7.0625 4.0625 -7.0625 C 3.414062 -7.0625 3.09375 -6.847656 3.09375 -6.421875 C 3.09375 -6.148438 3.25 -5.929688 3.5625 -5.765625 C 3.882812 -5.597656 4.269531 -5.453125 4.71875 -5.328125 C 5.175781 -5.210938 5.632812 -5.066406 6.09375 -4.890625 C 6.550781 -4.722656 6.9375 -4.445312 7.25 -4.0625 C 7.570312 -3.675781 7.734375 -3.191406 7.734375 -2.609375 C 7.734375 -1.765625 7.398438 -1.101562 6.734375 -0.625 C 6.078125 -0.15625 5.238281 0.078125 4.21875 0.078125 C 3.5 0.078125 2.78125 -0.046875 2.0625 -0.296875 C 1.351562 -0.546875 0.738281 -0.890625 0.21875 -1.328125 L 1.078125 -3.046875 C 1.515625 -2.660156 2.035156 -2.34375 2.640625 -2.09375 C 3.242188 -1.851562 3.78125 -1.734375 4.25 -1.734375 C 4.601562 -1.734375 4.878906 -1.796875 5.078125 -1.921875 C 5.285156 -2.054688 5.390625 -2.25 5.390625 -2.5 C 5.390625 -2.738281 5.273438 -2.9375 5.046875 -3.09375 C 4.816406 -3.257812 4.53125 -3.378906 4.1875 -3.453125 C 3.84375 -3.535156 3.46875 -3.644531 3.0625 -3.78125 C 2.664062 -3.914062 2.296875 -4.0625 1.953125 -4.21875 C 1.609375 -4.382812 1.320312 -4.640625 1.09375 -4.984375 C 0.863281 -5.328125 0.75 -5.742188 0.75 -6.234375 C 0.75 -7.035156 1.066406 -7.675781 1.703125 -8.15625 C 2.347656 -8.632812 3.195312 -8.875 4.25 -8.875 Z M 4.25 -8.875 "/></g></g></g><g fill="#7ed957" fill-opacity="1"><g transform="translate(205.188317, 286.23394)"><g><path d="M 7.75 -7.015625 L 3.109375 -7.015625 L 3.109375 -5.28125 L 7.296875 -5.28125 L 7.296875 -3.515625 L 3.109375 -3.515625 L 3.109375 -1.75 L 7.875 -1.75 L 7.875 0 L 0.875 0 L 0.875 -8.765625 L 7.75 -8.765625 Z M 7.75 -7.015625 "/></g></g></g><g fill="#7ed957" fill-opacity="1"><g transform="translate(215.506277, 286.23394)"><g><path d="M 8.015625 -7.34375 L 3.328125 -1.765625 L 8.09375 -1.765625 L 8.09375 0 L 0.34375 0 L 0.34375 -1.421875 L 5.046875 -7 L 0.515625 -7 L 0.515625 -8.765625 L 8.015625 -8.765625 Z M 8.015625 -7.34375 "/></g></g></g><g fill="#7ed957" fill-opacity="1"><g transform="translate(225.836758, 286.23394)"><g><path d="M 0.75 -1.703125 C 0.945312 -1.898438 1.203125 -2 1.515625 -2 C 1.828125 -2 2.078125 -1.898438 2.265625 -1.703125 C 2.460938 -1.515625 2.5625 -1.265625 2.5625 -0.953125 C 2.5625 -0.640625 2.460938 -0.382812 2.265625 -0.1875 C 2.078125 0 1.828125 0.09375 1.515625 0.09375 C 1.203125 0.09375 0.945312 0 0.75 -0.1875 C 0.5625 -0.382812 0.46875 -0.640625 0.46875 -0.953125 C 0.46875 -1.265625 0.5625 -1.515625 0.75 -1.703125 Z M 0.75 -1.703125 "/></g></g></g><g fill="#7ed957" fill-opacity="1"><g transform="translate(230.758252, 286.23394)"><g/></g></g><g fill="#7ed957" fill-opacity="1"><g transform="translate(235.542008, 286.23394)"><g><path d="M 7.75 -7.015625 L 3.109375 -7.015625 L 3.109375 -5.28125 L 7.296875 -5.28125 L 7.296875 -3.515625 L 3.109375 -3.515625 L 3.109375 -1.75 L 7.875 -1.75 L 7.875 0 L 0.875 0 L 0.875 -8.765625 L 7.75 -8.765625 Z M 7.75 -7.015625 "/></g></g></g><g fill="#7ed957" fill-opacity="1"><g transform="translate(245.859968, 286.23394)"><g><path d="M 8.96875 0 L 7 0 L 2.96875 -5.40625 L 2.96875 0 L 0.875 0 L 0.875 -8.765625 L 2.84375 -8.765625 L 6.890625 -3.359375 L 6.890625 -8.765625 L 8.96875 -8.765625 Z M 8.96875 0 "/></g></g></g><g fill="#7ed957" fill-opacity="1"><g transform="translate(257.580273, 286.23394)"><g><path d="M 4.25 -8.875 C 5.5625 -8.875 6.710938 -8.546875 7.703125 -7.890625 L 6.859375 -6.15625 C 6.398438 -6.414062 5.90625 -6.628906 5.375 -6.796875 C 4.851562 -6.972656 4.414062 -7.0625 4.0625 -7.0625 C 3.414062 -7.0625 3.09375 -6.847656 3.09375 -6.421875 C 3.09375 -6.148438 3.25 -5.929688 3.5625 -5.765625 C 3.882812 -5.597656 4.269531 -5.453125 4.71875 -5.328125 C 5.175781 -5.210938 5.632812 -5.066406 6.09375 -4.890625 C 6.550781 -4.722656 6.9375 -4.445312 7.25 -4.0625 C 7.570312 -3.675781 7.734375 -3.191406 7.734375 -2.609375 C 7.734375 -1.765625 7.398438 -1.101562 6.734375 -0.625 C 6.078125 -0.15625 5.238281 0.078125 4.21875 0.078125 C 3.5 0.078125 2.78125 -0.046875 2.0625 -0.296875 C 1.351562 -0.546875 0.738281 -0.890625 0.21875 -1.328125 L 1.078125 -3.046875 C 1.515625 -2.660156 2.035156 -2.34375 2.640625 -2.09375 C 3.242188 -1.851562 3.78125 -1.734375 4.25 -1.734375 C 4.601562 -1.734375 4.878906 -1.796875 5.078125 -1.921875 C 5.285156 -2.054688 5.390625 -2.25 5.390625 -2.5 C 5.390625 -2.738281 5.273438 -2.9375 5.046875 -3.09375 C 4.816406 -3.257812 4.53125 -3.378906 4.1875 -3.453125 C 3.84375 -3.535156 3.46875 -3.644531 3.0625 -3.78125 C 2.664062 -3.914062 2.296875 -4.0625 1.953125 -4.21875 C 1.609375 -4.382812 1.320312 -4.640625 1.09375 -4.984375 C 0.863281 -5.328125 0.75 -5.742188 0.75 -6.234375 C 0.75 -7.035156 1.066406 -7.675781 1.703125 -8.15625 C 2.347656 -8.632812 3.195312 -8.875 4.25 -8.875 Z M 4.25 -8.875 "/></g></g></g><g fill="#7ed957" fill-opacity="1"><g transform="translate(267.522609, 286.23394)"><g><path d="M 7.75 -7.015625 L 3.109375 -7.015625 L 3.109375 -5.28125 L 7.296875 -5.28125 L 7.296875 -3.515625 L 3.109375 -3.515625 L 3.109375 -1.75 L 7.875 -1.75 L 7.875 0 L 0.875 0 L 0.875 -8.765625 L 7.75 -8.765625 Z M 7.75 -7.015625 "/></g></g></g><g fill="#7ed957" fill-opacity="1"><g transform="translate(277.840569, 286.23394)"><g><path d="M 10.515625 0 L 8.546875 0 L 8.53125 -5.703125 L 6.421875 -0.875 L 4.96875 -0.875 L 2.875 -5.703125 L 2.875 0 L 0.875 0 L 0.875 -8.78125 L 3.328125 -8.78125 L 5.703125 -3.5625 L 8.078125 -8.78125 L 10.515625 -8.78125 Z M 10.515625 0 "/></g></g></g><g fill="#7ed957" fill-opacity="1"><g transform="translate(291.113453, 286.23394)"><g><path d="M 0.875 -8.765625 L 5.03125 -8.765625 C 6.007812 -8.765625 6.789062 -8.566406 7.375 -8.171875 C 7.957031 -7.773438 8.25 -7.242188 8.25 -6.578125 C 8.25 -6.117188 8.113281 -5.710938 7.84375 -5.359375 C 7.570312 -5.015625 7.203125 -4.78125 6.734375 -4.65625 C 7.285156 -4.539062 7.722656 -4.28125 8.046875 -3.875 C 8.378906 -3.476562 8.546875 -3 8.546875 -2.4375 C 8.546875 -1.6875 8.242188 -1.09375 7.640625 -0.65625 C 7.035156 -0.21875 6.210938 0 5.171875 0 L 0.875 0 Z M 3.09375 -7.0625 L 3.09375 -5.265625 L 4.90625 -5.265625 C 5.226562 -5.265625 5.484375 -5.34375 5.671875 -5.5 C 5.867188 -5.664062 5.96875 -5.890625 5.96875 -6.171875 C 5.96875 -6.453125 5.867188 -6.671875 5.671875 -6.828125 C 5.484375 -6.984375 5.226562 -7.0625 4.90625 -7.0625 Z M 3.09375 -3.65625 L 3.09375 -1.71875 L 4.90625 -1.71875 C 5.320312 -1.71875 5.644531 -1.804688 5.875 -1.984375 C 6.113281 -2.160156 6.234375 -2.398438 6.234375 -2.703125 C 6.234375 -2.992188 6.113281 -3.222656 5.875 -3.390625 C 5.644531 -3.566406 5.320312 -3.65625 4.90625 -3.65625 Z M 3.09375 -3.65625 "/></g></g></g><g fill="#7ed957" fill-opacity="1"><g transform="translate(301.944773, 286.23394)"><g><path d="M 3.109375 -1.859375 L 6.828125 -1.859375 L 6.828125 0 L 0.875 0 L 0.875 -8.765625 L 3.109375 -8.765625 Z M 3.109375 -1.859375 "/></g></g></g><g fill="#7ed957" fill-opacity="1"><g transform="translate(310.835369, 286.23394)"><g><path d="M 7.75 -7.015625 L 3.109375 -7.015625 L 3.109375 -5.28125 L 7.296875 -5.28125 L 7.296875 -3.515625 L 3.109375 -3.515625 L 3.109375 -1.75 L 7.875 -1.75 L 7.875 0 L 0.875 0 L 0.875 -8.765625 L 7.75 -8.765625 Z M 7.75 -7.015625 "/></g></g></g><g fill="#7ed957" fill-opacity="1"><g transform="translate(321.153328, 286.23394)"><g><path d="M 0.75 -1.703125 C 0.945312 -1.898438 1.203125 -2 1.515625 -2 C 1.828125 -2 2.078125 -1.898438 2.265625 -1.703125 C 2.460938 -1.515625 2.5625 -1.265625 2.5625 -0.953125 C 2.5625 -0.640625 2.460938 -0.382812 2.265625 -0.1875 C 2.078125 0 1.828125 0.09375 1.515625 0.09375 C 1.203125 0.09375 0.945312 0 0.75 -0.1875 C 0.5625 -0.382812 0.46875 -0.640625 0.46875 -0.953125 C 0.46875 -1.265625 0.5625 -1.515625 0.75 -1.703125 Z M 0.75 -1.703125 "/></g></g></g><g fill="#7ed957" fill-opacity="1"><g transform="translate(326.083299, 286.23394)"><g/></g></g></svg>